<?xml version="1.0" standalone="no"?><!DOCTYPE svg PUBLIC "-//W3C//DTD SVG 1.1//EN" "http://www.w3.org/Graphics/SVG/1.1/DTD/svg11.dtd"><svg t="1724295322781" class="icon" viewBox="0 0 1024 1024" version="1.1" xmlns="http://www.w3.org/2000/svg" p-id="10995" xmlns:xlink="http://www.w3.org/1999/xlink" width="200" height="200"><path d="M672.914286 1024H351.085714C157.988571 1024 0 866.011429 0 672.914286V351.085714C0 157.988571 157.988571 0 351.085714 0h321.828572c194.56 0 351.085714 157.988571 351.085714 351.085714v321.828572c0 193.097143-157.988571 351.085714-351.085714 351.085714z" fill="#E8E4FF" p-id="10996"></path><path d="M494.445714 332.068571c-24.868571-10.24-62.902857-20.48-127.268571-20.48h-144.822857c-14.628571 0-27.794286 10.24-27.794286 32.182858v408.137142c0 14.628571 10.24 27.794286 27.794286 27.794286h182.857143c27.794286 0 57.051429 2.925714 87.771428 17.554286l1.462857-465.188572z m292.571429-20.48v397.897143c0 24.868571-17.554286 42.422857-42.422857 42.422857h-105.325715c-24.868571 0-49.737143 10.24-67.291428 24.868572 10.24-2.925714 27.794286-2.925714 45.348571-2.925714h182.857143c14.628571 0 27.794286-10.24 27.794286-27.794286V342.308571c0-14.628571-10.24-27.794286-27.794286-27.794285l-13.165714-2.925715z" fill="#907FFF" p-id="10997"></path><path d="M223.817143 475.428571c-8.777143 0-14.628571-5.851429-14.628572-14.628571v-14.628571c0-8.777143 5.851429-14.628571 14.628572-14.628572s14.628571 5.851429 14.628571 14.628572v14.628571c0 8.777143-5.851429 14.628571-14.628571 14.628571z m0-58.514285c-8.777143 0-14.628571-5.851429-14.628572-14.628572v-26.331428c0-30.72 21.942857-46.811429 42.422858-46.811429h45.348571c8.777143 0 14.628571 5.851429 14.628571 14.628572s-5.851429 14.628571-14.628571 14.628571h-45.348571c-5.851429 0-13.165714 4.388571-13.165715 17.554286v26.331428c0 8.777143-5.851429 14.628571-14.628571 14.628572z" fill="#FFFFFF" p-id="10998"></path><path d="M645.12 229.668571c-49.737143 0-87.771429 24.868571-109.714286 67.291429v465.188571c24.868571-27.794286 62.902857-49.737143 105.325715-49.737142h52.662857c27.794286 0 52.662857-24.868571 52.662857-52.662858V254.537143c0-14.628571-10.24-27.794286-27.794286-27.794286l-73.142857 2.925714z" fill="#AA9CFD" opacity=".7" p-id="10999"></path></svg>